<?xml version="1.0"?>
<svg xmlns="http://www.w3.org/2000/svg" viewBox="0 0 64 64" width="512" height="512"><g id="Mouse-E_Book-Book-Click-Online_learning" data-name="Mouse-E Book-Book-Click-Online learning"><path d="M56,40.08V19a7,7,0,0,0-14,0v3a3.009,3.009,0,0,1-3,3H38V9a1,1,0,0,0-1-1,2,2,0,0,1,0-4,1,1,0,0,0,0-2H6A4,4,0,0,0,2,6V42a5,5,0,0,0,5,5H35a3.009,3.009,0,0,0,3-3V27h1a5,5,0,0,0,5-5V19a5,5,0,0,1,10,0V40.08A7,7,0,0,0,48,47v8a7,7,0,0,0,14,0V47A7,7,0,0,0,56,40.08ZM6,4H33.56a3.851,3.851,0,0,0,0,4H6A2,2,0,0,1,6,4ZM36,44a1,1,0,0,1-1,1H7a3.009,3.009,0,0,1-3-3V9.44A3.906,3.906,0,0,0,6,10H36ZM60,55a5,5,0,0,1-10,0V47a5,5,0,0,1,10,0Z"/><path d="M27,14H13a2.006,2.006,0,0,0-2,2v7a2.006,2.006,0,0,0,2,2H27a2.006,2.006,0,0,0,2-2V16A2.006,2.006,0,0,0,27,14Zm0,9H13V16H27Z"/><path d="M55,44a1,1,0,0,0-1,1v4a1,1,0,0,0,2,0V45A1,1,0,0,0,55,44Z"/><path d="M5,54H3a1,1,0,0,0,0,2H5a1,1,0,0,0,0-2Z"/><path d="M37,54H9a1,1,0,0,0,0,2H37a1,1,0,0,0,0-2Z"/><path d="M5,60H3a1,1,0,0,0,0,2H5a1,1,0,0,0,0-2Z"/><path d="M37,60H9a1,1,0,0,0,0,2H37a1,1,0,0,0,0-2Z"/></g></svg>
